<svg width="201" height="201" viewBox="0 0 201 201" version="1.1" xmlns="http://www.w3.org/2000/svg"><title>logo</title><g id="Pagine-Interne" stroke="none" stroke-width="1" fill="none" fill-rule="evenodd"><g id="logo" stroke="#ED4E0F" stroke-width=".5" fill="#ED4E0F"><path d="M182.293 124.985a75.292 75.292 0 0 0 13.616-23.72l.033 47.407a75.73 75.73 0 0 0-13.65-23.687zM149.987 5.06h45.86l.03 45.901c-7.591-21.366-24.543-38.323-45.89-45.9zM69.452 25.173H5.05V5.06h94.746c-11.71 4.157-22.097 11.133-30.343 20.113zM5.108 196.14l-.026-20.112h44.41l-.015 20.112H5.107zm44.403-44.537l-.015 20.114H5.076l-.025-20.114h44.46zM5.049 98.445V78.332h44.52l-.016 20.113H5.05zm0-48.848V29.484h60.73a75.42 75.42 0 0 0-11.375 20.113H5.049zm0 24.425V53.908h47.873a75.165 75.165 0 0 0-3.32 20.114H5.05zm97.606 2.155c0-12.278 9.975-22.269 22.236-22.269 12.261 0 22.238 9.99 22.238 22.27 0 12.278-9.977 22.267-22.238 22.267h-22.236V76.177zm22.304 75.428c11.534 0 21.044 8.842 22.13 20.112h-44.393l-.037-20.114 22.3.002zm22.236 44.535h-44.456l-.036-20.112h44.492v20.112zM200.742.75H.744v102.005H49.55l-.015 20.113H12.099a4.85 4.85 0 0 0-4.347-2.706 4.86 4.86 0 0 0-4.856 4.862 4.86 4.86 0 0 0 4.856 4.862 4.85 4.85 0 0 0 4.347-2.706H49.53l-.016 20.113H.742l.066 53.42h52.97l.098-124.536c0-39.214 31.857-71.117 71.015-71.117 38.98 0 70.715 31.618 71.003 70.588v1.087a71.047 71.047 0 0 1-16.515 45.026 75.234 75.234 0 0 0-15.705-12.58c7.567-8.903 12.148-20.426 12.148-33.005 0-28.123-22.848-51.001-50.93-51.001-28.084 0-50.932 22.878-50.932 51.001v113.166a4.859 4.859 0 0 0 2.151 9.216 4.859 4.859 0 0 0 4.856-4.862 4.858 4.858 0 0 0-2.702-4.354V76.176c0-25.745 20.916-46.691 46.626-46.691 25.71 0 46.627 20.946 46.627 46.691 0 25.747-20.918 46.692-46.627 46.692h-22.236v-20.113h22.236c14.635 0 26.542-11.923 26.542-26.578 0-14.656-11.907-26.579-26.542-26.579-14.635 0-26.542 11.923-26.542 26.58v71.115h-.004l.099 53.42h53.055v-26.84c0-14.655-11.906-26.58-26.54-26.58h-22.304V127.18h22.236l.066-.001c25.71 0 46.627 20.947 46.627 46.693v15.47a4.861 4.861 0 0 0 2.152 9.216 4.861 4.861 0 1 0 2.153-9.216v-15.47c0-23.043-15.344-42.555-36.333-48.858a50.933 50.933 0 0 0 21.134-12.603c21.343 12.47 34.722 35.191 35.266 59.894l.018 26.255 4.768-.002V.75z" id="Fill-1-Copy-2"/></g></g></svg>