<?xml version="1.0" encoding="utf-8"?>
<!-- Generator: Adobe Illustrator 22.0.1, SVG Export Plug-In . SVG Version: 6.00 Build 0)  -->
<svg version="1.1" id="Layer_1" xmlns="http://www.w3.org/2000/svg" xmlns:xlink="http://www.w3.org/1999/xlink" x="0px" y="0px"
	 viewBox="0 0 548.1 586" style="enable-background:new 0 0 548.1 586;" xml:space="preserve">
<style type="text/css">
	.st0{fill:#7D7E81;}
	.st1{fill:none;stroke:#7D7E81;stroke-miterlimit:10;}
	.st2{fill:none;stroke:#7D7E81;stroke-miterlimit:10;stroke-dasharray:9.1421,9.1421;}
	.st3{fill:none;stroke:#7D7E81;stroke-miterlimit:10;stroke-dasharray:6.8574,6.8574;}
	.st4{fill:none;stroke:#7D7E81;stroke-miterlimit:10;stroke-dasharray:7.681,7.681;}
	.st5{fill:none;stroke:#7D7E81;stroke-width:3;stroke-miterlimit:10;}
	.st6{fill:#ED4E0F;}
	.st7{font-family:'ArialMT';}
	.st8{font-size:19.2854px;}
	.st9{fill-rule:evenodd;clip-rule:evenodd;fill:none;stroke:#666666;stroke-miterlimit:10;}
	.st10{fill:#666666;}
	.st11{font-size:17.7063px;}
	.st12{font-size:18.8868px;}
	.st13{fill:none;stroke:#7D7E81;stroke-miterlimit:10;stroke-dasharray:8.4754,8.4754;}
	.st14{fill:none;stroke:#7D7E81;stroke-miterlimit:10;stroke-dasharray:7.1067,7.1067;}
	.st15{fill:none;stroke:#7D7E81;stroke-miterlimit:10;stroke-dasharray:7.1013,7.1013;}
	.st16{fill:none;stroke:#7D7E81;stroke-width:5;stroke-miterlimit:10;}
	.st17{clip-path:url(#SVGID_2_);}
</style>
<g>
	<g>
		<ellipse class="st0" cx="257.6" cy="96.3" rx="8.8" ry="9.1"/>
		<rect x="253.5" y="118" class="st0" width="8.4" height="37.3"/>
		<rect x="250.2" y="154.9" class="st0" width="14.9" height="229.3"/>
		<rect x="245.8" y="379.1" class="st0" width="23.7" height="205.5"/>
	</g>
	<g>
		<path class="st0" d="M256.9,21.4c-21.9,0.5-41.4,10.6-54.9,26.3l4.4,3.3c12.5-14.4,30.5-23.6,50.6-24c21.3-0.5,40.5,8.8,53.8,24
			l4.6-3C301.2,31.2,280.2,20.8,256.9,21.4z"/>
		<path class="st0" d="M257.3,36.2c-17.2,0.4-32.6,8.1-43.5,20.2l3.6,2.7c10.1-11,24.3-18,40.1-18.4c16.4-0.4,31.3,6.4,42,17.7
			l3.8-2.5C291.6,43.5,275.3,35.8,257.3,36.2z"/>
		<path class="st0" d="M257.6,52.2c-12.2,0.3-23.2,5.5-31.3,13.7l2.7,2c7.5-7.4,17.5-12.1,28.7-12.3c11.2-0.3,21.4,3.9,29.2,11
			l2.9-1.9C281.3,56.7,270,51.9,257.6,52.2z"/>
		<path class="st0" d="M258,70c-6.6,0.2-12.6,2.6-17.4,6.6l1.7,1.3c4.4-3.5,9.8-5.6,15.7-5.7c5.2-0.1,10.2,1.3,14.4,3.9l1.9-1.3
			C269.6,71.7,264,69.9,258,70z"/>
	</g>
</g>
<g>
	<g>
		<line class="st1" x1="322.1" y1="132.3" x2="318.1" y2="132.3"/>
		<line class="st2" x1="309" y1="132.3" x2="295.3" y2="132.3"/>
		<polyline class="st1" points="290.7,132.3 289.6,132.3 286.7,132.3 		"/>
	</g>
</g>
<g>
	<g>
		<line class="st1" x1="322" y1="334.7" x2="318" y2="334.7"/>
		<line class="st3" x1="311.2" y1="334.7" x2="300.9" y2="334.7"/>
		<polyline class="st1" points="297.5,334.7 295.8,334.7 293.5,334.7 		"/>
	</g>
</g>
<g>
	<g>
		<line class="st1" x1="292.8" y1="488.3" x2="292.8" y2="484.3"/>
		<polyline class="st4" points="292.8,476.6 292.8,346.7 292.8,342.2 		"/>
		<line class="st1" x1="292.8" y1="338.3" x2="292.8" y2="334.3"/>
	</g>
</g>
<g>
	<polygon class="st5" points="400.2,567.9 281.3,567.9 294.9,500.1 386.6,500.1 	"/>
	<line class="st5" x1="340.7" y1="500.1" x2="340.7" y2="567.9"/>
	<line class="st5" x1="318.1" y1="500.1" x2="311.7" y2="567.9"/>
	<line class="st5" x1="363.3" y1="500.1" x2="372.4" y2="567.9"/>
	<line class="st5" x1="288.4" y1="533" x2="393.1" y2="533"/>
</g>
<text transform="matrix(0.9627 0 0 1 7.4768 358.8887)" class="st6 st7 st8">LOCAL CONNECTIVITY</text>
<text transform="matrix(0.9627 0 0 1 7.4768 109.8198)" class="st6 st7 st8">GLOBAL CONNECTIVITY</text>
<ellipse class="st9" cx="328.6" cy="132.2" rx="6.4" ry="6.7"/>
<ellipse class="st9" cx="329.1" cy="335.4" rx="6.4" ry="6.7"/>
<text transform="matrix(0.9627 0 0 1 7.4768 383.8115)" class="st10 st7 st11">WiFi AP and Cellular BTS</text>
<text transform="matrix(0.9627 0 0 1 342.8103 330.9238)" class="st6 st7 st12">SOLAR PANEL &amp; HUT</text>
<text transform="matrix(0.9627 0 0 1 342.8103 352.3047)"><tspan x="0" y="0" class="st10 st7 st11">Cache server </tspan><tspan x="0" y="21.2" class="st10 st7 st11">HF Radio </tspan><tspan x="0" y="42.5" class="st10 st7 st11">12v Batteries or generator</tspan><tspan x="0" y="63.7" class="st10 st7 st11">Boost &amp; Charge controller</tspan></text>
<text transform="matrix(0.9627 0 0 1 342.6795 131.7061)" class="st6 st7 st12">TELESCOPIC MAST</text>
<text transform="matrix(0.9627 0 0 1 342.6795 151.6572)" class="st10 st7 st11">15 meters </text>
<text transform="matrix(0.9627 0 0 1 7.0725 132.3823)" class="st10 st7 st11">Shortwave, HF radio </text>
<g>
	<g>
		<line class="st1" x1="97.9" y1="264.1" x2="101.9" y2="264.1"/>
		<polyline class="st13" points="110.4,264.1 206.6,264.1 207.8,264.1 		"/>
		<line class="st1" x1="212.1" y1="264.1" x2="216.1" y2="264.1"/>
	</g>
</g>
<g>
	<g>
		<line class="st1" x1="97.9" y1="225.1" x2="101.9" y2="225.1"/>
		<polyline class="st13" points="110.4,225.1 206.6,225.1 207.8,225.1 		"/>
		<line class="st1" x1="212.1" y1="225.1" x2="216.1" y2="225.1"/>
	</g>
</g>
<g>
	<g>
		<line class="st1" x1="97.7" y1="321.2" x2="97.8" y2="317.2"/>
		<line class="st14" x1="97.8" y1="310.1" x2="97.8" y2="271.1"/>
		<line class="st1" x1="97.8" y1="267.5" x2="97.8" y2="263.5"/>
		<g>
			<polygon class="st0" points="102.7,319.8 97.7,328.4 92.8,319.8 			"/>
		</g>
	</g>
</g>
<g>
	<g>
		<line class="st1" x1="97.8" y1="153.8" x2="97.8" y2="157.8"/>
		<line class="st15" x1="97.8" y1="164.9" x2="97.7" y2="218.2"/>
		<line class="st1" x1="97.7" y1="221.7" x2="97.7" y2="225.7"/>
		<g>
			<polygon class="st0" points="92.8,155.3 97.8,146.6 102.8,155.3 			"/>
		</g>
	</g>
</g>
<line class="st16" x1="296.2" y1="569.2" x2="296.2" y2="584.6"/>
<line class="st16" x1="384.8" y1="569.2" x2="384.8" y2="584.6"/>
<g>
	<rect x="124.4" y="543.7" class="st10" width="61.1" height="42.1"/>
	<polygon class="st10" points="202.4,541 154.9,540.6 107.4,541 154.9,483.5 	"/>
</g>
<g>
	<g>
		<defs>
			<ellipse id="SVGID_1_" cx="52.4" cy="39.4" rx="40.9" ry="42.4"/>
		</defs>
		<clipPath id="SVGID_2_">
			<use xlink:href="#SVGID_1_"  style="overflow:visible;"/>
		</clipPath>
		<g class="st17">
			<path class="st10" d="M30,7c-2.6,1.6-2.7,2.3-6.2,3.8c-3.6,1.5-4.3,1-6.9,5.6c-2.6,4.6-7,11.3-6.3,15.4c0.7,4.1-0.2,6.4,1.9,8.6
				c2.1,2.2,3,3.8,3.7,5.3c0.4,1-0.4,1.8-0.4,3.6s0.2,1.8,1.7,1.8c1.4,0,0,1.1,1.2,3.2c1.2,2.1,1.4,2.6,3.1,7.7
				c1.7,5.1,5,12.3,9.5,15.6c4.5,3.3-2.4-2.9-2.8-6c-0.3-3.1,1.2-3.1,1.2-5.5c0-2.4,2.2-0.1,2.9-1.8c0.7-1.7-0.2-3.9,0.6-6.3
				c0.8-2.4,0.9-4.1-2.1-5.4c-3-1.3-5.1-3.4-6.1-4.9c-1-1.5-1.9-2.4-3.9-3.6c-2-1.1-2.9,0.2-4.2-0.7c-1.3-0.9-0.8-1.3-2-3.3
				c-1.2-2.1-2.1-1.5-2.2-3.2c-0.1-1.7,2-4.4,2.3-4.1c0.3,0.2,0,2.6,0.9,2.8c0.9,0.1-0.3-2.5,0.7-4.3c1-1.7,1.8-4.1,4-5.5
				c2.2-1.4,2.3-2.8,4.8-3.2c2.4-0.5,0-3.2,1.7-3c1.7,0.2,2.8,1.8,3.1-0.1c0.3-2,0.1-1.5-1.8-3.7c-1.9-2.2-3.7-3.1-4.7-0.5
				c-1,2.6-1.6,4.9-2.8,3.6c-1.2-1.4-0.7-3.6,0.6-4.1c1.2-0.6,3.8-3.3,5.5-2.2c1.8,1.1,3.7,0.8,4-0.5c0.3-1.3-2.1-2.2-0.8-3.6
				c1.3-1.4,4-2,4-0.3c0,1.6-1.1,3.4,0.3,4c1.4,0.6,5-1.6,6-1.8c1-0.2,4-0.6,5.7-2c1.7-1.4,3.6-3.6,4.5-4.3c1-0.7-4.1-1-6.7-0.3
				c-2.6,0.7-5.8,1.3-8.3,1.6C33.1,5.7,31.3,6.1,30,7z"/>
			<path class="st10" d="M15.5,36.5c-0.3,0.9,0.6-0.2,1.1,1.4c0.6,1.6-0.9,1.5,0.8,2c1.7,0.5,4,0.6,3.1-0.6
				C19.6,38.1,15.8,35.8,15.5,36.5z"/>
			<path class="st10" d="M46.5,9.8c-1.1,0.4-2.7,1-1,1.3c1.7,0.2,4.3,0,3.9-0.9C48.9,9.2,47.3,9.5,46.5,9.8z"/>
			<path class="st10" d="M79.3,58.6c-1.3,0.3-1.7,0.9-2.3,1.8c-0.7,0.9-0.8,2.3-1.2,3.4c-0.4,1.1,0.2,2.2,1.3,0.7
				C78.2,63.1,80.7,58.2,79.3,58.6z"/>
			<path class="st10" d="M50.9,13c-1.1,1.3-3.2,3.9-1.9,3.7c1.3-0.2,2.3-2.1,2.4-0.8c0.1,1.3,2.4,1.4,2.6,0.2
				C54.2,14.9,52.8,10.9,50.9,13z"/>
			<path class="st10" d="M92.5,24.6c0,0-6.9-15.2-10-14.6c-3.1,0.6-3.3,0.3-6.2,0.6c-2.9,0.2-0.6-1.4-1.8-2.2
				c-1.2-0.8-2.2,2.3-3.8,2.1c-1.6-0.2-2.1-0.3-4-2.2c-1.9-1.8-4-0.5-5.7,0.3c-1.7,0.8-2.9,2.1-4.2,3c-1.3,0.9,0.6,1.1,1.7,1.6
				c1.1,0.5,2.8,0.6,3.8-0.2c1-0.8,0.4-2,1.9-2.5c1.4-0.6-0.1,2.1,0.4,3.4c0.6,1.4-1.6,1.4-2.9,1.5c-1.3,0.1-2-0.1-4.1-1
				c-2.1-0.9-1.7,2.1-2.4,2.4c-0.8,0.3-3.8,1.4-3.6,2.5c0.2,1.1,2,2.3,0.4,2.1c-1.6-0.2-3.6,0.8-3.7,2.1c-0.1,1.3,1.4,3.2,2.1,3.3
				c0.7,0.1,3.1-0.7,3.6-2c0.4-1.3,1.4-2.1,3.2-2.8c1.8-0.7,2.3,0,3.6,1.6c1.2,1.6-0.1,1.4,0.4,2.6c0.6,1.3,1.4-1.6,2.1-1.4
				c0.7,0.2,2.7,2.5,3,1.2c0.3-1.3,0.8-1.6,1.6-0.5c0.8,1.1,3.9,1.4,4.7,2.6c0.8,1.3-1.8,1.7-2.9,1.5c-1.1-0.2-5.8-0.1-6.9-0.3
				C61.8,29.3,60,28,59.4,26c-0.7-2.1-3.1-0.5-4.3,0.2c-1.2,0.7-4.7,1-5.6,1.7c-0.9,0.7-1.7,2.8-3.2,4.1c-1.4,1.4-2.4,3.7-2.1,5.1
				c0.3,1.4-0.1,5.2,1.2,7.7c1.3,2.5,5,3.4,7.7,3.4c2.7,0,4.2-0.3,5.4,0.6c1.2,0.9,2.4,6.9,2.9,9c0.4,2.1-1.6,4.8-1.1,6.8
				c0.4,2,1.6,6.4,3,7.4c1.4,0.9,7.5-3.6,8.2-5.4c0.7-1.8,2.3-4.7,4.2-6.4c1.9-1.7,0-3.6,0.4-6.7c0.3-3.1,4.5-6.7,5-8
				c0.4-1.4-1-1.1-3.7-1.7c-2.7-0.6-4.1-8-4.4-10c-0.3-2,0.8,0.3,1.7,2.1c0.9,1.7,2.4,5.1,3.6,7.2c1.1,2.2,2.9-1.5,4.7-2.8
				c1.8-1.3,1.4-3,1-4.1c-0.4-1.1-2.6-1.3-3.4-2.4c-0.9-1.1-0.2-2.1,0.9-0.2c1.1,1.8,3.1,2,4.3,1.8c1.2-0.1,2.4,2.3,2.8,4.4
				c0.3,2.1,2.9,6.7,2.9,6.7s0.1-4.1,0.3-5.9c0.2-1.7,1.1-3.3,2.7-3.8L92.5,24.6z M73.5,23.7c-1.2,0.2-2.2-0.7-3.3-0.3
				c-1.1,0.3-1-0.5-0.3-1.8c0.7-1.3,1.3-0.5,2.8,0.2C74,22.4,74.7,23.4,73.5,23.7z M79.7,27.6c-1.2,0.1-0.5-2-2-3.4
				c-1.5-1.5-0.7-2,0.7-2.6c1-0.4,0.2,1.6,1.4,2.8C80.9,25.4,80.9,27.4,79.7,27.6z"/>
		</g>
	</g>
</g>
<polygon class="st10" points="138.6,498 80.5,427.7 5.9,518.1 80.5,517.4 122.2,517.8 "/>
<polygon class="st10" points="120.5,543.7 100.8,543.7 119.4,521.1 31.6,521.1 31.6,586 70.3,586 70.3,549.7 91.4,549.7 91.4,586 
	117.5,586 117.5,585.8 120.5,585.8 "/>
</svg>
